<svg xmlns="http://www.w3.org/2000/svg" width="160" height="160" viewBox="0 0 160 160">
  <rect width="160" height="160" fill="#f8fafc"/>
  <rect x="10" y="10" width="42" height="42" fill="#0f172a"/>
  <rect x="18" y="18" width="26" height="26" fill="#f8fafc"/>
  <rect x="26" y="26" width="10" height="10" fill="#0f172a"/>
  <rect x="108" y="10" width="42" height="42" fill="#0f172a"/>
  <rect x="116" y="18" width="26" height="26" fill="#f8fafc"/>
  <rect x="124" y="26" width="10" height="10" fill="#0f172a"/>
  <rect x="10" y="108" width="42" height="42" fill="#0f172a"/>
  <rect x="18" y="116" width="26" height="26" fill="#f8fafc"/>
  <rect x="26" y="124" width="10" height="10" fill="#0f172a"/>
  <rect x="74" y="66" width="12" height="12" fill="#0f172a"/>
  <rect x="90" y="66" width="8" height="8" fill="#0f172a"/>
  <rect x="66" y="88" width="10" height="10" fill="#0f172a"/>
  <rect x="88" y="90" width="12" height="12" fill="#0f172a"/>
  <rect x="60" y="74" width="8" height="8" fill="#0f172a"/>
  <rect x="104" y="84" width="10" height="10" fill="#0f172a"/>
</svg>
