<svg xmlns="http://www.w3.org/2000/svg" width="166" height="166" viewBox="0 0 166 166"><rect width="166" height="166" fill="#fff"/><rect x="8" y="8" width="42" height="42" fill="#000"/><rect x="14" y="14" width="30" height="30" fill="#fff"/><rect x="20" y="20" width="18" height="18" fill="#000"/><rect x="116" y="8" width="42" height="42" fill="#000"/><rect x="122" y="14" width="30" height="30" fill="#fff"/><rect x="128" y="20" width="18" height="18" fill="#000"/><rect x="8" y="116" width="42" height="42" fill="#000"/><rect x="14" y="122" width="30" height="30" fill="#fff"/><rect x="20" y="128" width="18" height="18" fill="#000"/><rect x="50" y="8" width="6" height="6" fill="#000"/><rect x="62" y="8" width="6" height="6" fill="#000"/><rect x="80" y="8" width="6" height="6" fill="#000"/><rect x="92" y="8" width="6" height="6" fill="#000"/><rect x="98" y="8" width="6" height="6" fill="#000"/><rect x="104" y="8" width="6" height="6" fill="#000"/><rect x="50" y="14" width="6" height="6" fill="#000"/><rect x="62" y="14" width="6" height="6" fill="#000"/><rect x="68" y="14" width="6" height="6" fill="#000"/><rect x="80" y="14" width="6" height="6" fill="#000"/><rect x="86" y="14" width="6" height="6" fill="#000"/><rect x="92" y="14" width="6" height="6" fill="#000"/><rect x="98" y="14" width="6" height="6" fill="#000"/><rect x="104" y="14" width="6" height="6" fill="#000"/><rect x="110" y="14" width="6" height="6" fill="#000"/><rect x="50" y="20" width="6" height="6" fill="#000"/><rect x="56" y="20" width="6" height="6" fill="#000"/><rect x="68" y="20" width="6" height="6" fill="#000"/><rect x="74" y="20" width="6" height="6" fill="#000"/><rect x="80" y="20" width="6" height="6" fill="#000"/><rect x="86" y="20" width="6" height="6" fill="#000"/><rect x="98" y="20" width="6" height="6" fill="#000"/><rect x="110" y="20" width="6" height="6" fill="#000"/><rect x="50" y="26" width="6" height="6" fill="#000"/><rect x="68" y="26" width="6" height="6" fill="#000"/><rect x="92" y="26" width="6" height="6" fill="#000"/><rect x="98" y="26" width="6" height="6" fill="#000"/><rect x="104" y="26" width="6" height="6" fill="#000"/><rect x="110" y="26" width="6" height="6" fill="#000"/><rect x="50" y="32" width="6" height="6" fill="#000"/><rect x="62" y="32" width="6" height="6" fill="#000"/><rect x="68" y="32" width="6" height="6" fill="#000"/><rect x="74" y="32" width="6" height="6" fill="#000"/><rect x="80" y="32" width="6" height="6" fill="#000"/><rect x="92" y="32" width="6" height="6" fill="#000"/><rect x="110" y="32" width="6" height="6" fill="#000"/><rect x="50" y="38" width="6" height="6" fill="#000"/><rect x="56" y="38" width="6" height="6" fill="#000"/><rect x="62" y="38" width="6" height="6" fill="#000"/><rect x="68" y="38" width="6" height="6" fill="#000"/><rect x="74" y="38" width="6" height="6" fill="#000"/><rect x="80" y="38" width="6" height="6" fill="#000"/><rect x="86" y="38" width="6" height="6" fill="#000"/><rect x="92" y="38" width="6" height="6" fill="#000"/><rect x="98" y="38" width="6" height="6" fill="#000"/><rect x="104" y="38" width="6" height="6" fill="#000"/><rect x="50" y="44" width="6" height="6" fill="#000"/><rect x="62" y="44" width="6" height="6" fill="#000"/><rect x="68" y="44" width="6" height="6" fill="#000"/><rect x="86" y="44" width="6" height="6" fill="#000"/><rect x="92" y="44" width="6" height="6" fill="#000"/><rect x="98" y="44" width="6" height="6" fill="#000"/><rect x="104" y="44" width="6" height="6" fill="#000"/><rect x="110" y="44" width="6" height="6" fill="#000"/><rect x="14" y="50" width="6" height="6" fill="#000"/><rect x="26" y="50" width="6" height="6" fill="#000"/><rect x="32" y="50" width="6" height="6" fill="#000"/><rect x="38" y="50" width="6" height="6" fill="#000"/><rect x="44" y="50" width="6" height="6" fill="#000"/><rect x="50" y="50" width="6" height="6" fill="#000"/><rect x="56" y="50" width="6" height="6" fill="#000"/><rect x="68" y="50" width="6" height="6" fill="#000"/><rect x="98" y="50" width="6" height="6" fill="#000"/><rect x="110" y="50" width="6" height="6" fill="#000"/><rect x="146" y="50" width="6" height="6" fill="#000"/><rect x="152" y="50" width="6" height="6" fill="#000"/><rect x="8" y="56" width="6" height="6" fill="#000"/><rect x="14" y="56" width="6" height="6" fill="#000"/><rect x="20" y="56" width="6" height="6" fill="#000"/><rect x="44" y="56" width="6" height="6" fill="#000"/><rect x="56" y="56" width="6" height="6" fill="#000"/><rect x="68" y="56" width="6" height="6" fill="#000"/><rect x="74" y="56" width="6" height="6" fill="#000"/><rect x="80" y="56" width="6" height="6" fill="#000"/><rect x="86" y="56" width="6" height="6" fill="#000"/><rect x="92" y="56" width="6" height="6" fill="#000"/><rect x="98" y="56" width="6" height="6" fill="#000"/><rect x="104" y="56" width="6" height="6" fill="#000"/><rect x="116" y="56" width="6" height="6" fill="#000"/><rect x="122" y="56" width="6" height="6" fill="#000"/><rect x="128" y="56" width="6" height="6" fill="#000"/><rect x="152" y="56" width="6" height="6" fill="#000"/><rect x="14" y="62" width="6" height="6" fill="#000"/><rect x="20" y="62" width="6" height="6" fill="#000"/><rect x="26" y="62" width="6" height="6" fill="#000"/><rect x="44" y="62" width="6" height="6" fill="#000"/><rect x="50" y="62" width="6" height="6" fill="#000"/><rect x="56" y="62" width="6" height="6" fill="#000"/><rect x="62" y="62" width="6" height="6" fill="#000"/><rect x="80" y="62" width="6" height="6" fill="#000"/><rect x="86" y="62" width="6" height="6" fill="#000"/><rect x="92" y="62" width="6" height="6" fill="#000"/><rect x="98" y="62" width="6" height="6" fill="#000"/><rect x="104" y="62" width="6" height="6" fill="#000"/><rect x="110" y="62" width="6" height="6" fill="#000"/><rect x="122" y="62" width="6" height="6" fill="#000"/><rect x="128" y="62" width="6" height="6" fill="#000"/><rect x="140" y="62" width="6" height="6" fill="#000"/><rect x="146" y="62" width="6" height="6" fill="#000"/><rect x="152" y="62" width="6" height="6" fill="#000"/><rect x="8" y="68" width="6" height="6" fill="#000"/><rect x="32" y="68" width="6" height="6" fill="#000"/><rect x="38" y="68" width="6" height="6" fill="#000"/><rect x="56" y="68" width="6" height="6" fill="#000"/><rect x="62" y="68" width="6" height="6" fill="#000"/><rect x="68" y="68" width="6" height="6" fill="#000"/><rect x="80" y="68" width="6" height="6" fill="#000"/><rect x="92" y="68" width="6" height="6" fill="#000"/><rect x="98" y="68" width="6" height="6" fill="#000"/><rect x="104" y="68" width="6" height="6" fill="#000"/><rect x="128" y="68" width="6" height="6" fill="#000"/><rect x="140" y="68" width="6" height="6" fill="#000"/><rect x="146" y="68" width="6" height="6" fill="#000"/><rect x="8" y="74" width="6" height="6" fill="#000"/><rect x="26" y="74" width="6" height="6" fill="#000"/><rect x="32" y="74" width="6" height="6" fill="#000"/><rect x="50" y="74" width="6" height="6" fill="#000"/><rect x="62" y="74" width="6" height="6" fill="#000"/><rect x="74" y="74" width="6" height="6" fill="#000"/><rect x="80" y="74" width="6" height="6" fill="#000"/><rect x="122" y="74" width="6" height="6" fill="#000"/><rect x="128" y="74" width="6" height="6" fill="#000"/><rect x="140" y="74" width="6" height="6" fill="#000"/><rect x="146" y="74" width="6" height="6" fill="#000"/><rect x="152" y="74" width="6" height="6" fill="#000"/><rect x="8" y="80" width="6" height="6" fill="#000"/><rect x="26" y="80" width="6" height="6" fill="#000"/><rect x="32" y="80" width="6" height="6" fill="#000"/><rect x="38" y="80" width="6" height="6" fill="#000"/><rect x="44" y="80" width="6" height="6" fill="#000"/><rect x="50" y="80" width="6" height="6" fill="#000"/><rect x="56" y="80" width="6" height="6" fill="#000"/><rect x="62" y="80" width="6" height="6" fill="#000"/><rect x="68" y="80" width="6" height="6" fill="#000"/><rect x="74" y="80" width="6" height="6" fill="#000"/><rect x="110" y="80" width="6" height="6" fill="#000"/><rect x="134" y="80" width="6" height="6" fill="#000"/><rect x="140" y="80" width="6" height="6" fill="#000"/><rect x="146" y="80" width="6" height="6" fill="#000"/><rect x="8" y="86" width="6" height="6" fill="#000"/><rect x="14" y="86" width="6" height="6" fill="#000"/><rect x="20" y="86" width="6" height="6" fill="#000"/><rect x="26" y="86" width="6" height="6" fill="#000"/><rect x="32" y="86" width="6" height="6" fill="#000"/><rect x="44" y="86" width="6" height="6" fill="#000"/><rect x="50" y="86" width="6" height="6" fill="#000"/><rect x="56" y="86" width="6" height="6" fill="#000"/><rect x="62" y="86" width="6" height="6" fill="#000"/><rect x="74" y="86" width="6" height="6" fill="#000"/><rect x="92" y="86" width="6" height="6" fill="#000"/><rect x="134" y="86" width="6" height="6" fill="#000"/><rect x="146" y="86" width="6" height="6" fill="#000"/><rect x="152" y="86" width="6" height="6" fill="#000"/><rect x="14" y="92" width="6" height="6" fill="#000"/><rect x="20" y="92" width="6" height="6" fill="#000"/><rect x="26" y="92" width="6" height="6" fill="#000"/><rect x="32" y="92" width="6" height="6" fill="#000"/><rect x="44" y="92" width="6" height="6" fill="#000"/><rect x="50" y="92" width="6" height="6" fill="#000"/><rect x="68" y="92" width="6" height="6" fill="#000"/><rect x="74" y="92" width="6" height="6" fill="#000"/><rect x="86" y="92" width="6" height="6" fill="#000"/><rect x="104" y="92" width="6" height="6" fill="#000"/><rect x="116" y="92" width="6" height="6" fill="#000"/><rect x="122" y="92" width="6" height="6" fill="#000"/><rect x="134" y="92" width="6" height="6" fill="#000"/><rect x="152" y="92" width="6" height="6" fill="#000"/><rect x="8" y="98" width="6" height="6" fill="#000"/><rect x="14" y="98" width="6" height="6" fill="#000"/><rect x="20" y="98" width="6" height="6" fill="#000"/><rect x="26" y="98" width="6" height="6" fill="#000"/><rect x="38" y="98" width="6" height="6" fill="#000"/><rect x="44" y="98" width="6" height="6" fill="#000"/><rect x="50" y="98" width="6" height="6" fill="#000"/><rect x="62" y="98" width="6" height="6" fill="#000"/><rect x="86" y="98" width="6" height="6" fill="#000"/><rect x="104" y="98" width="6" height="6" fill="#000"/><rect x="110" y="98" width="6" height="6" fill="#000"/><rect x="122" y="98" width="6" height="6" fill="#000"/><rect x="128" y="98" width="6" height="6" fill="#000"/><rect x="134" y="98" width="6" height="6" fill="#000"/><rect x="140" y="98" width="6" height="6" fill="#000"/><rect x="146" y="98" width="6" height="6" fill="#000"/><rect x="20" y="104" width="6" height="6" fill="#000"/><rect x="32" y="104" width="6" height="6" fill="#000"/><rect x="44" y="104" width="6" height="6" fill="#000"/><rect x="50" y="104" width="6" height="6" fill="#000"/><rect x="62" y="104" width="6" height="6" fill="#000"/><rect x="80" y="104" width="6" height="6" fill="#000"/><rect x="86" y="104" width="6" height="6" fill="#000"/><rect x="92" y="104" width="6" height="6" fill="#000"/><rect x="98" y="104" width="6" height="6" fill="#000"/><rect x="104" y="104" width="6" height="6" fill="#000"/><rect x="116" y="104" width="6" height="6" fill="#000"/><rect x="122" y="104" width="6" height="6" fill="#000"/><rect x="128" y="104" width="6" height="6" fill="#000"/><rect x="140" y="104" width="6" height="6" fill="#000"/><rect x="146" y="104" width="6" height="6" fill="#000"/><rect x="152" y="104" width="6" height="6" fill="#000"/><rect x="8" y="110" width="6" height="6" fill="#000"/><rect x="14" y="110" width="6" height="6" fill="#000"/><rect x="26" y="110" width="6" height="6" fill="#000"/><rect x="32" y="110" width="6" height="6" fill="#000"/><rect x="44" y="110" width="6" height="6" fill="#000"/><rect x="50" y="110" width="6" height="6" fill="#000"/><rect x="74" y="110" width="6" height="6" fill="#000"/><rect x="80" y="110" width="6" height="6" fill="#000"/><rect x="86" y="110" width="6" height="6" fill="#000"/><rect x="92" y="110" width="6" height="6" fill="#000"/><rect x="98" y="110" width="6" height="6" fill="#000"/><rect x="104" y="110" width="6" height="6" fill="#000"/><rect x="110" y="110" width="6" height="6" fill="#000"/><rect x="116" y="110" width="6" height="6" fill="#000"/><rect x="122" y="110" width="6" height="6" fill="#000"/><rect x="128" y="110" width="6" height="6" fill="#000"/><rect x="140" y="110" width="6" height="6" fill="#000"/><rect x="146" y="110" width="6" height="6" fill="#000"/><rect x="152" y="110" width="6" height="6" fill="#000"/><rect x="74" y="116" width="6" height="6" fill="#000"/><rect x="92" y="116" width="6" height="6" fill="#000"/><rect x="104" y="116" width="6" height="6" fill="#000"/><rect x="116" y="116" width="6" height="6" fill="#000"/><rect x="122" y="116" width="6" height="6" fill="#000"/><rect x="128" y="116" width="6" height="6" fill="#000"/><rect x="134" y="116" width="6" height="6" fill="#000"/><rect x="140" y="116" width="6" height="6" fill="#000"/><rect x="50" y="122" width="6" height="6" fill="#000"/><rect x="56" y="122" width="6" height="6" fill="#000"/><rect x="62" y="122" width="6" height="6" fill="#000"/><rect x="74" y="122" width="6" height="6" fill="#000"/><rect x="80" y="122" width="6" height="6" fill="#000"/><rect x="92" y="122" width="6" height="6" fill="#000"/><rect x="104" y="122" width="6" height="6" fill="#000"/><rect x="116" y="122" width="6" height="6" fill="#000"/><rect x="134" y="122" width="6" height="6" fill="#000"/><rect x="146" y="122" width="6" height="6" fill="#000"/><rect x="50" y="128" width="6" height="6" fill="#000"/><rect x="80" y="128" width="6" height="6" fill="#000"/><rect x="86" y="128" width="6" height="6" fill="#000"/><rect x="98" y="128" width="6" height="6" fill="#000"/><rect x="110" y="128" width="6" height="6" fill="#000"/><rect x="122" y="128" width="6" height="6" fill="#000"/><rect x="128" y="128" width="6" height="6" fill="#000"/><rect x="146" y="128" width="6" height="6" fill="#000"/><rect x="62" y="134" width="6" height="6" fill="#000"/><rect x="68" y="134" width="6" height="6" fill="#000"/><rect x="74" y="134" width="6" height="6" fill="#000"/><rect x="80" y="134" width="6" height="6" fill="#000"/><rect x="92" y="134" width="6" height="6" fill="#000"/><rect x="98" y="134" width="6" height="6" fill="#000"/><rect x="128" y="134" width="6" height="6" fill="#000"/><rect x="140" y="134" width="6" height="6" fill="#000"/><rect x="152" y="134" width="6" height="6" fill="#000"/><rect x="50" y="140" width="6" height="6" fill="#000"/><rect x="68" y="140" width="6" height="6" fill="#000"/><rect x="74" y="140" width="6" height="6" fill="#000"/><rect x="86" y="140" width="6" height="6" fill="#000"/><rect x="92" y="140" width="6" height="6" fill="#000"/><rect x="98" y="140" width="6" height="6" fill="#000"/><rect x="104" y="140" width="6" height="6" fill="#000"/><rect x="110" y="140" width="6" height="6" fill="#000"/><rect x="116" y="140" width="6" height="6" fill="#000"/><rect x="122" y="140" width="6" height="6" fill="#000"/><rect x="128" y="140" width="6" height="6" fill="#000"/><rect x="140" y="140" width="6" height="6" fill="#000"/><rect x="50" y="146" width="6" height="6" fill="#000"/><rect x="56" y="146" width="6" height="6" fill="#000"/><rect x="62" y="146" width="6" height="6" fill="#000"/><rect x="74" y="146" width="6" height="6" fill="#000"/><rect x="80" y="146" width="6" height="6" fill="#000"/><rect x="86" y="146" width="6" height="6" fill="#000"/><rect x="122" y="146" width="6" height="6" fill="#000"/><rect x="128" y="146" width="6" height="6" fill="#000"/><rect x="140" y="146" width="6" height="6" fill="#000"/><rect x="56" y="152" width="6" height="6" fill="#000"/><rect x="62" y="152" width="6" height="6" fill="#000"/><rect x="68" y="152" width="6" height="6" fill="#000"/><rect x="80" y="152" width="6" height="6" fill="#000"/><rect x="92" y="152" width="6" height="6" fill="#000"/><rect x="98" y="152" width="6" height="6" fill="#000"/><rect x="104" y="152" width="6" height="6" fill="#000"/><rect x="110" y="152" width="6" height="6" fill="#000"/><rect x="116" y="152" width="6" height="6" fill="#000"/><rect x="128" y="152" width="6" height="6" fill="#000"/><rect x="140" y="152" width="6" height="6" fill="#000"/></svg>