<svg xmlns="http://www.w3.org/2000/svg" width="160" height="160" viewBox="0 0 160 160">
  <rect width="160" height="160" fill="#f8fafc"/>
  <rect x="8" y="8" width="44" height="44" fill="#0f172a"/>
  <rect x="16" y="16" width="28" height="28" fill="#f8fafc"/>
  <rect x="24" y="24" width="12" height="12" fill="#0f172a"/>
  <rect x="108" y="8" width="44" height="44" fill="#0f172a"/>
  <rect x="116" y="16" width="28" height="28" fill="#f8fafc"/>
  <rect x="124" y="24" width="12" height="12" fill="#0f172a"/>
  <rect x="8" y="108" width="44" height="44" fill="#0f172a"/>
  <rect x="16" y="116" width="28" height="28" fill="#f8fafc"/>
  <rect x="24" y="124" width="12" height="12" fill="#0f172a"/>
  <rect x="70" y="70" width="10" height="10" fill="#0f172a"/>
  <rect x="86" y="70" width="10" height="10" fill="#0f172a"/>
  <rect x="70" y="86" width="10" height="10" fill="#0f172a"/>
  <rect x="90" y="90" width="12" height="12" fill="#0f172a"/>
  <rect x="60" y="100" width="12" height="12" fill="#0f172a"/>
  <rect x="100" y="60" width="10" height="10" fill="#0f172a"/>
  <rect x="56" y="56" width="8" height="8" fill="#0f172a"/>
</svg>
