<svg xmlns="http://www.w3.org/2000/svg" width="166" height="166" viewBox="0 0 166 166"><rect width="166" height="166" fill="#fff"/><rect x="8" y="8" width="42" height="42" fill="#000"/><rect x="14" y="14" width="30" height="30" fill="#fff"/><rect x="20" y="20" width="18" height="18" fill="#000"/><rect x="116" y="8" width="42" height="42" fill="#000"/><rect x="122" y="14" width="30" height="30" fill="#fff"/><rect x="128" y="20" width="18" height="18" fill="#000"/><rect x="8" y="116" width="42" height="42" fill="#000"/><rect x="14" y="122" width="30" height="30" fill="#fff"/><rect x="20" y="128" width="18" height="18" fill="#000"/><rect x="50" y="8" width="6" height="6" fill="#000"/><rect x="56" y="8" width="6" height="6" fill="#000"/><rect x="62" y="8" width="6" height="6" fill="#000"/><rect x="68" y="8" width="6" height="6" fill="#000"/><rect x="92" y="8" width="6" height="6" fill="#000"/><rect x="104" y="8" width="6" height="6" fill="#000"/><rect x="110" y="8" width="6" height="6" fill="#000"/><rect x="50" y="14" width="6" height="6" fill="#000"/><rect x="62" y="14" width="6" height="6" fill="#000"/><rect x="68" y="14" width="6" height="6" fill="#000"/><rect x="74" y="14" width="6" height="6" fill="#000"/><rect x="80" y="14" width="6" height="6" fill="#000"/><rect x="86" y="14" width="6" height="6" fill="#000"/><rect x="92" y="14" width="6" height="6" fill="#000"/><rect x="98" y="14" width="6" height="6" fill="#000"/><rect x="50" y="20" width="6" height="6" fill="#000"/><rect x="62" y="20" width="6" height="6" fill="#000"/><rect x="68" y="20" width="6" height="6" fill="#000"/><rect x="74" y="20" width="6" height="6" fill="#000"/><rect x="92" y="20" width="6" height="6" fill="#000"/><rect x="104" y="20" width="6" height="6" fill="#000"/><rect x="50" y="26" width="6" height="6" fill="#000"/><rect x="62" y="26" width="6" height="6" fill="#000"/><rect x="80" y="26" width="6" height="6" fill="#000"/><rect x="86" y="26" width="6" height="6" fill="#000"/><rect x="92" y="26" width="6" height="6" fill="#000"/><rect x="98" y="26" width="6" height="6" fill="#000"/><rect x="104" y="26" width="6" height="6" fill="#000"/><rect x="110" y="26" width="6" height="6" fill="#000"/><rect x="56" y="32" width="6" height="6" fill="#000"/><rect x="62" y="32" width="6" height="6" fill="#000"/><rect x="74" y="32" width="6" height="6" fill="#000"/><rect x="86" y="32" width="6" height="6" fill="#000"/><rect x="92" y="32" width="6" height="6" fill="#000"/><rect x="98" y="32" width="6" height="6" fill="#000"/><rect x="104" y="32" width="6" height="6" fill="#000"/><rect x="110" y="32" width="6" height="6" fill="#000"/><rect x="56" y="38" width="6" height="6" fill="#000"/><rect x="62" y="38" width="6" height="6" fill="#000"/><rect x="68" y="38" width="6" height="6" fill="#000"/><rect x="74" y="38" width="6" height="6" fill="#000"/><rect x="80" y="38" width="6" height="6" fill="#000"/><rect x="86" y="38" width="6" height="6" fill="#000"/><rect x="92" y="38" width="6" height="6" fill="#000"/><rect x="98" y="38" width="6" height="6" fill="#000"/><rect x="50" y="44" width="6" height="6" fill="#000"/><rect x="56" y="44" width="6" height="6" fill="#000"/><rect x="62" y="44" width="6" height="6" fill="#000"/><rect x="74" y="44" width="6" height="6" fill="#000"/><rect x="80" y="44" width="6" height="6" fill="#000"/><rect x="86" y="44" width="6" height="6" fill="#000"/><rect x="104" y="44" width="6" height="6" fill="#000"/><rect x="110" y="44" width="6" height="6" fill="#000"/><rect x="8" y="50" width="6" height="6" fill="#000"/><rect x="14" y="50" width="6" height="6" fill="#000"/><rect x="20" y="50" width="6" height="6" fill="#000"/><rect x="26" y="50" width="6" height="6" fill="#000"/><rect x="32" y="50" width="6" height="6" fill="#000"/><rect x="56" y="50" width="6" height="6" fill="#000"/><rect x="80" y="50" width="6" height="6" fill="#000"/><rect x="116" y="50" width="6" height="6" fill="#000"/><rect x="122" y="50" width="6" height="6" fill="#000"/><rect x="128" y="50" width="6" height="6" fill="#000"/><rect x="134" y="50" width="6" height="6" fill="#000"/><rect x="140" y="50" width="6" height="6" fill="#000"/><rect x="146" y="50" width="6" height="6" fill="#000"/><rect x="152" y="50" width="6" height="6" fill="#000"/><rect x="8" y="56" width="6" height="6" fill="#000"/><rect x="26" y="56" width="6" height="6" fill="#000"/><rect x="32" y="56" width="6" height="6" fill="#000"/><rect x="38" y="56" width="6" height="6" fill="#000"/><rect x="44" y="56" width="6" height="6" fill="#000"/><rect x="56" y="56" width="6" height="6" fill="#000"/><rect x="62" y="56" width="6" height="6" fill="#000"/><rect x="80" y="56" width="6" height="6" fill="#000"/><rect x="92" y="56" width="6" height="6" fill="#000"/><rect x="98" y="56" width="6" height="6" fill="#000"/><rect x="104" y="56" width="6" height="6" fill="#000"/><rect x="110" y="56" width="6" height="6" fill="#000"/><rect x="116" y="56" width="6" height="6" fill="#000"/><rect x="122" y="56" width="6" height="6" fill="#000"/><rect x="140" y="56" width="6" height="6" fill="#000"/><rect x="146" y="56" width="6" height="6" fill="#000"/><rect x="152" y="56" width="6" height="6" fill="#000"/><rect x="8" y="62" width="6" height="6" fill="#000"/><rect x="14" y="62" width="6" height="6" fill="#000"/><rect x="20" y="62" width="6" height="6" fill="#000"/><rect x="26" y="62" width="6" height="6" fill="#000"/><rect x="50" y="62" width="6" height="6" fill="#000"/><rect x="56" y="62" width="6" height="6" fill="#000"/><rect x="62" y="62" width="6" height="6" fill="#000"/><rect x="68" y="62" width="6" height="6" fill="#000"/><rect x="74" y="62" width="6" height="6" fill="#000"/><rect x="80" y="62" width="6" height="6" fill="#000"/><rect x="92" y="62" width="6" height="6" fill="#000"/><rect x="110" y="62" width="6" height="6" fill="#000"/><rect x="116" y="62" width="6" height="6" fill="#000"/><rect x="128" y="62" width="6" height="6" fill="#000"/><rect x="140" y="62" width="6" height="6" fill="#000"/><rect x="146" y="62" width="6" height="6" fill="#000"/><rect x="8" y="68" width="6" height="6" fill="#000"/><rect x="56" y="68" width="6" height="6" fill="#000"/><rect x="62" y="68" width="6" height="6" fill="#000"/><rect x="68" y="68" width="6" height="6" fill="#000"/><rect x="86" y="68" width="6" height="6" fill="#000"/><rect x="92" y="68" width="6" height="6" fill="#000"/><rect x="104" y="68" width="6" height="6" fill="#000"/><rect x="116" y="68" width="6" height="6" fill="#000"/><rect x="122" y="68" width="6" height="6" fill="#000"/><rect x="134" y="68" width="6" height="6" fill="#000"/><rect x="140" y="68" width="6" height="6" fill="#000"/><rect x="146" y="68" width="6" height="6" fill="#000"/><rect x="152" y="68" width="6" height="6" fill="#000"/><rect x="8" y="74" width="6" height="6" fill="#000"/><rect x="14" y="74" width="6" height="6" fill="#000"/><rect x="20" y="74" width="6" height="6" fill="#000"/><rect x="26" y="74" width="6" height="6" fill="#000"/><rect x="32" y="74" width="6" height="6" fill="#000"/><rect x="38" y="74" width="6" height="6" fill="#000"/><rect x="44" y="74" width="6" height="6" fill="#000"/><rect x="56" y="74" width="6" height="6" fill="#000"/><rect x="68" y="74" width="6" height="6" fill="#000"/><rect x="74" y="74" width="6" height="6" fill="#000"/><rect x="80" y="74" width="6" height="6" fill="#000"/><rect x="86" y="74" width="6" height="6" fill="#000"/><rect x="98" y="74" width="6" height="6" fill="#000"/><rect x="104" y="74" width="6" height="6" fill="#000"/><rect x="110" y="74" width="6" height="6" fill="#000"/><rect x="116" y="74" width="6" height="6" fill="#000"/><rect x="122" y="74" width="6" height="6" fill="#000"/><rect x="128" y="74" width="6" height="6" fill="#000"/><rect x="146" y="74" width="6" height="6" fill="#000"/><rect x="152" y="74" width="6" height="6" fill="#000"/><rect x="8" y="80" width="6" height="6" fill="#000"/><rect x="20" y="80" width="6" height="6" fill="#000"/><rect x="26" y="80" width="6" height="6" fill="#000"/><rect x="44" y="80" width="6" height="6" fill="#000"/><rect x="50" y="80" width="6" height="6" fill="#000"/><rect x="56" y="80" width="6" height="6" fill="#000"/><rect x="62" y="80" width="6" height="6" fill="#000"/><rect x="74" y="80" width="6" height="6" fill="#000"/><rect x="80" y="80" width="6" height="6" fill="#000"/><rect x="98" y="80" width="6" height="6" fill="#000"/><rect x="110" y="80" width="6" height="6" fill="#000"/><rect x="116" y="80" width="6" height="6" fill="#000"/><rect x="122" y="80" width="6" height="6" fill="#000"/><rect x="128" y="80" width="6" height="6" fill="#000"/><rect x="140" y="80" width="6" height="6" fill="#000"/><rect x="146" y="80" width="6" height="6" fill="#000"/><rect x="8" y="86" width="6" height="6" fill="#000"/><rect x="14" y="86" width="6" height="6" fill="#000"/><rect x="20" y="86" width="6" height="6" fill="#000"/><rect x="26" y="86" width="6" height="6" fill="#000"/><rect x="32" y="86" width="6" height="6" fill="#000"/><rect x="44" y="86" width="6" height="6" fill="#000"/><rect x="50" y="86" width="6" height="6" fill="#000"/><rect x="56" y="86" width="6" height="6" fill="#000"/><rect x="62" y="86" width="6" height="6" fill="#000"/><rect x="80" y="86" width="6" height="6" fill="#000"/><rect x="92" y="86" width="6" height="6" fill="#000"/><rect x="104" y="86" width="6" height="6" fill="#000"/><rect x="110" y="86" width="6" height="6" fill="#000"/><rect x="122" y="86" width="6" height="6" fill="#000"/><rect x="128" y="86" width="6" height="6" fill="#000"/><rect x="140" y="86" width="6" height="6" fill="#000"/><rect x="152" y="86" width="6" height="6" fill="#000"/><rect x="14" y="92" width="6" height="6" fill="#000"/><rect x="26" y="92" width="6" height="6" fill="#000"/><rect x="38" y="92" width="6" height="6" fill="#000"/><rect x="56" y="92" width="6" height="6" fill="#000"/><rect x="68" y="92" width="6" height="6" fill="#000"/><rect x="80" y="92" width="6" height="6" fill="#000"/><rect x="92" y="92" width="6" height="6" fill="#000"/><rect x="98" y="92" width="6" height="6" fill="#000"/><rect x="104" y="92" width="6" height="6" fill="#000"/><rect x="110" y="92" width="6" height="6" fill="#000"/><rect x="116" y="92" width="6" height="6" fill="#000"/><rect x="122" y="92" width="6" height="6" fill="#000"/><rect x="128" y="92" width="6" height="6" fill="#000"/><rect x="134" y="92" width="6" height="6" fill="#000"/><rect x="152" y="92" width="6" height="6" fill="#000"/><rect x="8" y="98" width="6" height="6" fill="#000"/><rect x="14" y="98" width="6" height="6" fill="#000"/><rect x="50" y="98" width="6" height="6" fill="#000"/><rect x="56" y="98" width="6" height="6" fill="#000"/><rect x="62" y="98" width="6" height="6" fill="#000"/><rect x="68" y="98" width="6" height="6" fill="#000"/><rect x="86" y="98" width="6" height="6" fill="#000"/><rect x="92" y="98" width="6" height="6" fill="#000"/><rect x="110" y="98" width="6" height="6" fill="#000"/><rect x="134" y="98" width="6" height="6" fill="#000"/><rect x="146" y="98" width="6" height="6" fill="#000"/><rect x="152" y="98" width="6" height="6" fill="#000"/><rect x="20" y="104" width="6" height="6" fill="#000"/><rect x="26" y="104" width="6" height="6" fill="#000"/><rect x="38" y="104" width="6" height="6" fill="#000"/><rect x="44" y="104" width="6" height="6" fill="#000"/><rect x="56" y="104" width="6" height="6" fill="#000"/><rect x="62" y="104" width="6" height="6" fill="#000"/><rect x="68" y="104" width="6" height="6" fill="#000"/><rect x="92" y="104" width="6" height="6" fill="#000"/><rect x="104" y="104" width="6" height="6" fill="#000"/><rect x="128" y="104" width="6" height="6" fill="#000"/><rect x="134" y="104" width="6" height="6" fill="#000"/><rect x="140" y="104" width="6" height="6" fill="#000"/><rect x="146" y="104" width="6" height="6" fill="#000"/><rect x="8" y="110" width="6" height="6" fill="#000"/><rect x="14" y="110" width="6" height="6" fill="#000"/><rect x="20" y="110" width="6" height="6" fill="#000"/><rect x="32" y="110" width="6" height="6" fill="#000"/><rect x="50" y="110" width="6" height="6" fill="#000"/><rect x="56" y="110" width="6" height="6" fill="#000"/><rect x="62" y="110" width="6" height="6" fill="#000"/><rect x="68" y="110" width="6" height="6" fill="#000"/><rect x="80" y="110" width="6" height="6" fill="#000"/><rect x="86" y="110" width="6" height="6" fill="#000"/><rect x="92" y="110" width="6" height="6" fill="#000"/><rect x="98" y="110" width="6" height="6" fill="#000"/><rect x="104" y="110" width="6" height="6" fill="#000"/><rect x="116" y="110" width="6" height="6" fill="#000"/><rect x="128" y="110" width="6" height="6" fill="#000"/><rect x="140" y="110" width="6" height="6" fill="#000"/><rect x="50" y="116" width="6" height="6" fill="#000"/><rect x="56" y="116" width="6" height="6" fill="#000"/><rect x="98" y="116" width="6" height="6" fill="#000"/><rect x="116" y="116" width="6" height="6" fill="#000"/><rect x="122" y="116" width="6" height="6" fill="#000"/><rect x="134" y="116" width="6" height="6" fill="#000"/><rect x="140" y="116" width="6" height="6" fill="#000"/><rect x="152" y="116" width="6" height="6" fill="#000"/><rect x="50" y="122" width="6" height="6" fill="#000"/><rect x="62" y="122" width="6" height="6" fill="#000"/><rect x="80" y="122" width="6" height="6" fill="#000"/><rect x="92" y="122" width="6" height="6" fill="#000"/><rect x="98" y="122" width="6" height="6" fill="#000"/><rect x="104" y="122" width="6" height="6" fill="#000"/><rect x="110" y="122" width="6" height="6" fill="#000"/><rect x="116" y="122" width="6" height="6" fill="#000"/><rect x="122" y="122" width="6" height="6" fill="#000"/><rect x="128" y="122" width="6" height="6" fill="#000"/><rect x="140" y="122" width="6" height="6" fill="#000"/><rect x="152" y="122" width="6" height="6" fill="#000"/><rect x="56" y="128" width="6" height="6" fill="#000"/><rect x="62" y="128" width="6" height="6" fill="#000"/><rect x="68" y="128" width="6" height="6" fill="#000"/><rect x="74" y="128" width="6" height="6" fill="#000"/><rect x="80" y="128" width="6" height="6" fill="#000"/><rect x="86" y="128" width="6" height="6" fill="#000"/><rect x="98" y="128" width="6" height="6" fill="#000"/><rect x="110" y="128" width="6" height="6" fill="#000"/><rect x="116" y="128" width="6" height="6" fill="#000"/><rect x="122" y="128" width="6" height="6" fill="#000"/><rect x="134" y="128" width="6" height="6" fill="#000"/><rect x="146" y="128" width="6" height="6" fill="#000"/><rect x="68" y="134" width="6" height="6" fill="#000"/><rect x="74" y="134" width="6" height="6" fill="#000"/><rect x="80" y="134" width="6" height="6" fill="#000"/><rect x="86" y="134" width="6" height="6" fill="#000"/><rect x="92" y="134" width="6" height="6" fill="#000"/><rect x="98" y="134" width="6" height="6" fill="#000"/><rect x="104" y="134" width="6" height="6" fill="#000"/><rect x="116" y="134" width="6" height="6" fill="#000"/><rect x="128" y="134" width="6" height="6" fill="#000"/><rect x="146" y="134" width="6" height="6" fill="#000"/><rect x="152" y="134" width="6" height="6" fill="#000"/><rect x="50" y="140" width="6" height="6" fill="#000"/><rect x="56" y="140" width="6" height="6" fill="#000"/><rect x="68" y="140" width="6" height="6" fill="#000"/><rect x="86" y="140" width="6" height="6" fill="#000"/><rect x="110" y="140" width="6" height="6" fill="#000"/><rect x="116" y="140" width="6" height="6" fill="#000"/><rect x="122" y="140" width="6" height="6" fill="#000"/><rect x="134" y="140" width="6" height="6" fill="#000"/><rect x="140" y="140" width="6" height="6" fill="#000"/><rect x="146" y="140" width="6" height="6" fill="#000"/><rect x="68" y="146" width="6" height="6" fill="#000"/><rect x="74" y="146" width="6" height="6" fill="#000"/><rect x="98" y="146" width="6" height="6" fill="#000"/><rect x="104" y="146" width="6" height="6" fill="#000"/><rect x="110" y="146" width="6" height="6" fill="#000"/><rect x="122" y="146" width="6" height="6" fill="#000"/><rect x="134" y="146" width="6" height="6" fill="#000"/><rect x="146" y="146" width="6" height="6" fill="#000"/><rect x="152" y="146" width="6" height="6" fill="#000"/><rect x="50" y="152" width="6" height="6" fill="#000"/><rect x="68" y="152" width="6" height="6" fill="#000"/><rect x="92" y="152" width="6" height="6" fill="#000"/><rect x="104" y="152" width="6" height="6" fill="#000"/><rect x="110" y="152" width="6" height="6" fill="#000"/><rect x="116" y="152" width="6" height="6" fill="#000"/><rect x="122" y="152" width="6" height="6" fill="#000"/><rect x="128" y="152" width="6" height="6" fill="#000"/><rect x="140" y="152" width="6" height="6" fill="#000"/><rect x="146" y="152" width="6" height="6" fill="#000"/><rect x="152" y="152" width="6" height="6" fill="#000"/></svg>