<svg width="750" height="931" viewBox="0 0 750 931" fill="none" xmlns="http://www.w3.org/2000/svg">
<path d="M450.991 77.6292L340.726 187.651C340.726 187.651 321.949 145.27 340.407 84.5729C343.366 74.8356 350.105 66.7147 359.164 62.0656C377.501 52.6477 411.596 44.0877 450.991 77.6491V77.6292Z" fill="#0E5575"/>
<path d="M238.354 400.568C233.755 395.679 175.542 331.569 199.759 241.161C224.955 147.062 335.34 73.3146 335.34 73.3146C296.706 192.076 382.613 282.823 382.613 282.823C425.928 336.179 449.304 374.449 461.923 400.029" fill="#5FBDEB"/>
<path d="M340.12 695.12C395.653 603.475 293.887 466.477 253.812 418.349H282.909C287.027 418.349 290.588 415.496 291.487 411.505L310.825 325.687L351.819 496.506C352.538 499.539 355.258 501.674 358.398 501.674C359.937 501.674 361.377 501.156 362.517 500.258C363.677 499.379 364.537 498.122 364.937 496.626L394.572 382.434L406.491 412.763C407.692 415.855 410.67 417.871 413.99 417.89L469.902 417.99C476.322 434.212 476.642 441.575 476.642 441.575C512.856 605.152 342.539 693.884 340.12 695.12Z" fill="#58A0BF"/>
<path d="M561.007 409.089C561.007 414.097 556.928 418.168 551.909 418.148L469.92 417.989L414.008 417.888C410.688 417.869 407.708 415.853 406.509 412.76L394.59 382.432L364.955 496.625C364.555 498.121 363.696 499.378 362.535 500.255C361.395 501.153 359.955 501.673 358.416 501.673C355.277 501.673 352.557 499.537 351.837 496.505L310.842 325.685L291.505 411.503C290.606 415.494 287.046 418.348 282.927 418.348H124.268C121.789 418.348 119.529 417.349 117.909 415.714C116.269 414.097 115.27 411.843 115.27 409.369C115.27 404.42 119.309 400.389 124.268 400.41L238.332 400.569L277.247 400.629L302.223 281.23C302.643 279.253 303.724 277.558 305.203 276.36C306.683 275.164 308.563 274.444 310.602 274.444C314.542 274.444 317.982 277.138 318.902 280.97L358.596 444.207L379.573 359.047L384.432 339.353C384.893 337.457 385.972 335.861 387.431 334.724C388.871 333.587 390.711 332.928 392.651 332.928C396.391 332.928 399.71 335.382 400.771 338.973L403.609 348.531L418.948 400.03H551.929C556.947 400.03 561.007 404.082 561.007 409.089Z" fill="#DBE02E"/>
<path d="M332.153 690.108C306.277 724.229 243.406 696.813 233.566 682.686L336.152 580.325C336.152 580.325 358.01 655.988 332.153 690.108Z" fill="#0E5575"/>
<path d="M379.555 359.029L358.578 444.19L318.883 280.953L379.555 359.029Z" fill="#58A0BF"/>
<path d="M445.467 400.023H418.951L403.613 348.543L445.467 400.023Z" fill="#58A0BF"/>
<path d="M2.50781 865.964L13.4724 859.385C21.1916 873.596 30.1094 880.7 40.2262 880.7C44.5535 880.7 48.6177 879.706 52.4189 877.719C56.2199 875.671 59.1145 872.952 61.1029 869.561C63.0911 866.169 64.0853 862.572 64.0853 858.771C64.0853 854.444 62.6233 850.204 59.6994 846.052C55.6643 840.322 48.2961 833.421 37.5947 825.352C26.8347 817.223 20.1389 811.345 17.5075 807.72C12.9462 801.638 10.6655 795.059 10.6655 787.984C10.6655 782.37 12.0105 777.253 14.7005 772.633C17.3905 768.013 21.1623 764.387 26.016 761.756C30.9282 759.066 36.2496 757.721 41.9805 757.721C48.0622 757.721 53.7347 759.241 58.9976 762.283C64.3192 765.264 69.933 770.791 75.8392 778.861L65.3133 786.844C60.4596 780.411 56.3076 776.171 52.8574 774.125C49.4657 772.077 45.7524 771.054 41.7173 771.054C36.5128 771.054 32.244 772.633 28.9107 775.791C25.6359 778.949 23.9985 782.838 23.9985 787.457C23.9985 790.264 24.5832 792.984 25.7528 795.615C26.9224 798.247 29.0568 801.111 32.1562 804.211C33.8521 805.849 39.4074 810.146 48.8225 817.106C59.9918 825.352 67.6524 832.69 71.8043 839.123C75.9563 845.555 78.0323 852.017 78.0323 858.509C78.0323 867.864 74.465 875.993 67.3307 882.894C60.255 889.794 51.6294 893.245 41.4543 893.245C33.6182 893.245 26.513 891.168 20.1389 887.016C13.7648 882.806 7.8878 875.788 2.50781 865.964ZM195.924 814.386L186.187 820.44C177.767 809.269 166.276 803.684 151.715 803.684C140.077 803.684 130.399 807.428 122.68 814.913C115.02 822.398 111.189 831.492 111.189 842.192C111.189 849.152 112.944 855.701 116.452 861.841C120.02 867.981 124.873 872.747 131.013 876.139C137.212 879.531 144.142 881.227 151.802 881.227C165.837 881.227 177.299 875.642 186.187 864.473L195.924 870.876C191.363 877.719 185.223 883.039 177.504 886.84C169.843 890.584 161.101 892.455 151.276 892.455C136.189 892.455 123.674 887.66 113.733 878.069C103.792 868.479 98.8212 856.812 98.8212 843.07C98.8212 833.83 101.131 825.264 105.751 817.369C110.429 809.416 116.832 803.217 124.961 798.772C133.089 794.329 142.182 792.107 152.24 792.107C158.557 792.107 164.638 793.071 170.486 795.001C176.393 796.931 181.392 799.445 185.485 802.544C189.579 805.644 193.059 809.591 195.924 814.386ZM314.692 794.563V889.999H302.588V873.596C297.442 879.853 291.652 884.56 285.219 887.718C278.845 890.875 271.858 892.455 264.256 892.455C250.748 892.455 239.197 887.572 229.607 877.805C220.075 867.981 215.309 856.053 215.309 842.018C215.309 828.275 220.135 816.52 229.783 806.755C239.431 796.988 251.039 792.107 264.607 792.107C272.443 792.107 279.518 793.773 285.834 797.107C292.208 800.439 297.793 805.439 302.588 812.106V794.563H314.692ZM265.571 803.948C258.729 803.948 252.414 805.644 246.625 809.035C240.835 812.369 236.216 817.076 232.766 823.158C229.373 829.239 227.678 835.672 227.678 842.456C227.678 849.181 229.403 855.614 232.852 861.754C236.303 867.894 240.923 872.69 246.713 876.139C252.56 879.531 258.817 881.227 265.484 881.227C272.209 881.227 278.583 879.531 284.606 876.139C290.629 872.747 295.249 868.157 298.465 862.368C301.739 856.578 303.377 850.058 303.377 842.807C303.377 831.755 299.722 822.515 292.413 815.089C285.162 807.661 276.215 803.948 265.571 803.948ZM342.412 794.563H354.692V811.667C359.604 805.117 365.042 800.235 371.008 797.019C376.972 793.743 383.463 792.107 390.48 792.107C397.615 792.107 403.931 793.919 409.427 797.544C414.983 801.17 419.076 806.054 421.708 812.194C424.34 818.334 425.655 827.894 425.655 840.878V889.999H413.462V844.474C413.462 833.479 412.995 826.141 412.06 822.457C410.598 816.141 407.849 811.405 403.814 808.246C399.779 805.031 394.515 803.422 388.024 803.422C380.598 803.422 373.931 805.878 368.025 810.79C362.177 815.702 358.317 821.784 356.446 829.036C355.277 833.772 354.692 842.426 354.692 854.999V889.999H342.412V794.563ZM452.848 889.999V757.721H465.04V810.966C470.186 804.65 475.947 799.942 482.32 796.843C488.694 793.685 495.683 792.107 503.285 792.107C516.794 792.107 528.314 797.019 537.845 806.843C547.435 816.608 552.231 828.48 552.231 842.456C552.231 856.256 547.407 868.04 537.757 877.805C528.109 887.572 516.501 892.455 502.934 892.455C495.156 892.455 488.11 890.788 481.794 887.455C475.479 884.122 469.894 879.121 465.04 872.455V889.999H452.848ZM501.969 880.613C508.811 880.613 515.127 878.947 520.916 875.613C526.705 872.221 531.296 867.485 534.688 861.402C538.138 855.321 539.862 848.888 539.862 842.106C539.862 835.322 538.138 828.86 534.688 822.72C531.237 816.579 526.588 811.813 520.74 808.422C514.951 804.971 508.753 803.247 502.144 803.247C495.419 803.247 489.016 804.971 482.934 808.422C476.91 811.813 472.262 816.403 468.987 822.193C465.771 827.982 464.163 834.502 464.163 841.753C464.163 852.806 467.789 862.046 475.04 869.473C482.349 876.899 491.327 880.613 501.969 880.613ZM619.861 792.107C634.538 792.107 646.702 797.427 656.351 808.071C665.122 817.779 669.509 829.27 669.509 842.544C669.509 855.877 664.86 867.542 655.562 877.543C646.322 887.484 634.421 892.455 619.861 892.455C605.241 892.455 593.283 887.484 583.985 877.543C574.745 867.542 570.125 855.877 570.125 842.544C570.125 829.327 574.511 817.865 583.282 808.159C592.932 797.457 605.124 792.107 619.861 792.107ZM619.861 804.123C609.686 804.123 600.943 807.895 593.633 815.439C586.324 822.982 582.669 832.105 582.669 842.807C582.669 849.708 584.336 856.139 587.669 862.105C591.001 868.069 595.505 872.69 601.178 875.964C606.849 879.181 613.077 880.788 619.861 880.788C626.645 880.788 632.872 879.181 638.544 875.964C644.217 872.69 648.719 868.069 652.053 862.105C655.386 856.139 657.053 849.708 657.053 842.807C657.053 832.105 653.369 822.982 646 815.439C638.691 807.895 629.978 804.123 619.861 804.123Z" fill="#0E5575"/>
<path d="M680.386 766.401V718.43H703.394C705.822 718.43 708.161 719.016 710.414 720.186C712.713 721.312 714.597 723.004 716.069 725.254C717.587 727.465 718.344 730.195 718.344 733.447C718.344 736.696 717.565 739.511 716.005 741.896C714.488 744.235 712.539 746.034 710.155 747.292C707.816 748.547 705.388 749.176 702.875 749.176H685.067V742.611H700.664C702.875 742.611 704.848 741.832 706.582 740.272C708.356 738.669 709.245 736.394 709.245 733.447C709.245 730.412 708.356 728.247 706.582 726.946C704.848 725.645 702.939 724.995 700.86 724.995H688.771V766.401H680.386ZM708.335 744.107L720.295 766.401H710.936L699.299 744.107H708.335ZM698.002 795C690.807 795 684.068 793.656 677.787 790.969C671.503 788.282 665.976 784.557 661.21 779.79C656.443 775.024 652.718 769.5 650.031 763.216C647.343 756.932 646 750.192 646 743.001C646 735.807 647.343 729.068 650.031 722.787C652.718 716.503 656.443 710.979 661.21 706.21C665.976 701.443 671.503 697.718 677.787 695.031C684.068 692.344 690.807 691 698.002 691C705.193 691 711.932 692.344 718.216 695.031C724.5 697.718 730.024 701.443 734.79 706.21C739.557 710.979 743.282 716.503 745.969 722.787C748.656 729.068 750 735.807 750 743.001C750 750.192 748.656 756.932 745.969 763.216C743.282 769.5 739.557 775.024 734.79 779.79C730.024 784.557 724.5 788.282 718.216 790.969C711.932 793.656 705.193 795 698.002 795ZM698.002 785.314C705.8 785.314 712.884 783.409 719.254 779.595C725.67 775.781 730.781 770.691 734.595 764.321C738.409 757.906 740.314 750.8 740.314 743.001C740.314 735.2 738.409 728.115 734.595 721.746C730.781 715.333 725.67 710.219 719.254 706.405C712.884 702.594 705.8 700.686 698.002 700.686C690.2 700.686 683.094 702.594 676.682 706.405C670.312 710.219 665.219 715.333 661.405 721.746C657.594 728.115 655.686 735.2 655.686 743.001C655.686 750.8 657.594 757.906 661.405 764.321C665.219 770.691 670.312 775.781 676.682 779.595C683.094 783.409 690.2 785.314 698.002 785.314Z" fill="#0E5575"/>
</svg>
